<?xml version="1.0" standalone="no"?><!DOCTYPE svg PUBLIC "-//W3C//DTD SVG 1.1//EN"
        "http://www.w3.org/Graphics/SVG/1.1/DTD/svg11.dtd"><svg t="1699239181540" class="icon" viewBox="0 0 1024 1024"
                                                                version="1.1" xmlns="http://www.w3.org/2000/svg"
                                                                p-id="829" xmlns:xlink="http://www.w3.org/1999/xlink"
                                                                width="200" height="200"><path
        d="M915.2 108.8H108.8c-24.7 0-44.8 20.1-44.8 44.8v89.6c0 24.7 20.1 44.8 44.8 44.8h806.4c24.7 0 44.8-20.1 44.8-44.8v-89.6c0-24.7-20.1-44.8-44.8-44.8z m0 313.6H108.8c-24.7 0-44.8 20.1-44.8 44.8v89.6c0 24.7 20.1 44.8 44.8 44.8h806.4c24.7 0 44.8-20.1 44.8-44.8v-89.6c0-24.7-20.1-44.8-44.8-44.8z m0 313.6H108.8C84.1 736 64 756.1 64 780.8v89.6c0 24.7 20.1 44.8 44.8 44.8h806.4c24.7 0 44.8-20.1 44.8-44.8v-89.6c0-24.7-20.1-44.8-44.8-44.8z"
        p-id="830"></path></svg>
