<svg xmlns="http://www.w3.org/2000/svg" xmlns:xlink="http://www.w3.org/1999/xlink" width="13"
     height="10.800003051757812" viewBox="0 0 13 10.800003051757812"><g opacity="1"
                                                                        transform="translate(0.5 0.5)  rotate(0)"><path
        id="矩形 1"
        d="M2,9.3h8c0.8284,0 1.5,-0.67157 1.5,-1.5v-5.8c0,-0.82843 -0.6716,-1.5 -1.5,-1.5h-8c-0.82843,0 -1.5,0.67157 -1.5,1.5v5.8c0,0.82843 0.67157,1.5 1.5,1.5zM2,10.3c-1.38071,0 -2.5,-1.11929 -2.5,-2.5v-5.8c0,-1.38071 1.11929,-2.5 2.5,-2.5h8c1.3807,0 2.5,1.11929 2.5,2.5v5.8c0,1.38071 -1.1193,2.5 -2.5,2.5z"></path><path
        id="矩形 1" opacity="1"
        d="M5 7.84078L8 7.84078C8.55 7.84078 9 7.39078 9 6.84078L9 2.96078C9 2.41078 8.55 1.96078 8 1.96078L5 1.96078C4.45 1.96078 4 2.41078 4 2.96078L4 6.84078C4 7.39078 4.45 7.84078 5 7.84078Z"></path></g></svg>
