<svg xmlns="http://www.w3.org/2000/svg" xmlns:xlink="http://www.w3.org/1999/xlink" width="16" height="16"
     viewBox="0 0 16 16"><g opacity="1" transform="translate(0 0)  rotate(0)"><mask id="bg-mask-0" fill="white"><use
        transform="translate(0 0)  rotate(0)" xlink:href="#path_0"></use></mask><g mask="url(#bg-mask-0)"><path
        id="路径 1"  opacity="0.8"
        d="M13.99,2.4c0.01,0.03 0.01,0.07 0.01,0.1v3c0,0.28 -0.22,0.5 -0.5,0.5c-0.28,0 -0.5,-0.22 -0.5,-0.5v-1.79l-3.65,3.64c-0.09,0.1 -0.22,0.15 -0.35,0.15c-0.13,0 -0.26,-0.05 -0.35,-0.15c-0.1,-0.09 -0.15,-0.22 -0.15,-0.35c0,-0.13 0.05,-0.26 0.15,-0.35l3.64,-3.65h-1.79c-0.28,0 -0.5,-0.22 -0.5,-0.5c0,-0.28 0.22,-0.5 0.5,-0.5h3c0.03,0 0.06,0 0.09,0.01l0.05,0.02c0.02,0 0.03,0 0.05,0l0.05,0.03c0.01,0.01 0.03,0.02 0.04,0.02c0.05,0.04 0.1,0.09 0.14,0.14c0,0.02 0.01,0.03 0.02,0.04c0.01,0.02 0.01,0.03 0.02,0.05c0.01,0.02 0.02,0.04 0.02,0.05c0,0.01 0.01,0.03 0.01,0.04zM6.65,8.65c0.19,-0.18 0.5,-0.17 0.69,0.01c0.18,0.19 0.19,0.5 0.01,0.69l-3.64,3.65h1.79c0.28,0 0.5,0.22 0.5,0.5c0,0.28 -0.22,0.5 -0.5,0.5h-3c-0.03,0 -0.07,0 -0.1,-0.01l-0.04,-0.01l-0.05,-0.02c-0.02,-0.01 -0.03,-0.01 -0.05,-0.02c-0.01,-0.01 -0.02,-0.02 -0.04,-0.02c-0.05,-0.04 -0.1,-0.09 -0.14,-0.14c0,-0.02 -0.01,-0.03 -0.02,-0.04c-0.01,-0.02 -0.01,-0.03 -0.02,-0.05c-0.01,-0.01 -0.01,-0.04 -0.02,-0.05c0,-0.01 -0.01,-0.03 -0.01,-0.04c-0.01,-0.03 -0.01,-0.07 -0.01,-0.1v-3c0,-0.28 0.22,-0.5 0.5,-0.5c0.28,0 0.5,0.22 0.5,0.5v1.79z"></path></g></g><defs><rect
        id="path_0" x="0" y="0" width="16" height="16"/></defs></svg>
