<svg xmlns="http://www.w3.org/2000/svg" xmlns:xlink="http://www.w3.org/1999/xlink" width="14.800048828125"
     height="12.799995422363281" viewBox="0 0 14.800048828125 12.799995422363281"><g opacity="1"
                                                                                     transform="translate(0.4000244140625 0.40000152587890625)  rotate(0)"><path
        id="矩形 1"
        d="M2,11.6h10c0.8837,0 1.6,-0.7163 1.6,-1.6v-8c0,-0.88366 -0.7163,-1.6 -1.6,-1.6h-10c-0.88366,0 -1.6,0.71634 -1.6,1.6v8c0,0.8837 0.71634,1.6 1.6,1.6zM2,12.4c-1.32548,0 -2.4,-1.0745 -2.4,-2.4v-8c0,-1.32548 1.07452,-2.4 2.4,-2.4h10c1.3255,0 2.4,1.07452 2.4,2.4v8c0,1.3255 -1.0745,2.4 -2.4,2.4z"></path><path
        id="矩形 1" opacity="0.8"
        d="M7 10.0001L11 10.0001C11.55 10.0001 12 9.55005 12 9.00005L12 3.00001C12 2.45 11.55 2 11 2L7 2C6.45 2 6 2.45 6 3.00001L6 9.00005C6 9.55005 6.45 10.0001 7 10.0001Z"></path></g></svg>
